# xmcd
#
# Track frame offsets:
#	150
#	14841
#	30839
#	47881
#	67062
#	85762
#	102223
#	120150
#	134786
#	152957
#	170399
#
# Disc length: 2599 seconds
#
# Revision: 0
# Processed by: cddbd v1.5.2PL0 Copyright (c) Steve Scherf et al.
# Submitted via: dBpowerAMP V4.0
#
DISCID=8f0a250b
DTITLE=Dreamland - Eye For An Eye
DYEAR=2007
DGENRE=Speed Melodic
TTITLE0=Eye For An Eye
TTITLE1=Carousel Of Pain
TTITLE2=Reverse Deny
TTITLE3=Secret Signs
TTITLE4=Chosen Ones
TTITLE5=Spread Your Wings
TTITLE6=Shadows Of The Night
TTITLE7=Heavenly Designed
TTITLE8=Children Of Tomorrow
TTITLE9=Forever And Ever
TTITLE10=Revolution In Paradise
EXTD=
EXTT0=
EXTT1=
EXTT2=
EXTT3=
EXTT4=
EXTT5=
EXTT6=
EXTT7=
EXTT8=
EXTT9=
EXTT10=
PLAYORDER=
